<svg width="18" height="31" viewBox="0 0 18 31" fill="none" xmlns="http://www.w3.org/2000/svg">
<path d="M12.6668 0.291672C10.6224 0.291672 8.66181 1.1038 7.21621 2.54939C5.77062 3.99498 4.95849 5.95563 4.95849 8V12.2917H0.833496C0.626389 12.2917 0.458496 12.4596 0.458496 12.6667V18.3333C0.458496 18.5404 0.626389 18.7083 0.833496 18.7083H4.95849V30.3333C4.95849 30.5404 5.12639 30.7083 5.33349 30.7083H11.0002C11.2073 30.7083 11.3752 30.5404 11.3752 30.3333V18.7083H15.5367C15.7088 18.7083 15.8588 18.5912 15.9005 18.4243L17.3172 12.7576C17.3763 12.5209 17.1973 12.2917 16.9534 12.2917H11.3752V8C11.3752 7.65743 11.5112 7.32889 11.7535 7.08666C11.9957 6.84442 12.3243 6.70834 12.6668 6.70834H17.0002C17.2073 6.70834 17.3752 6.54044 17.3752 6.33334V0.666672C17.3752 0.459565 17.2073 0.291672 17.0002 0.291672H12.6668Z" fill="white"/>
</svg>
