<svg width="28" height="29" viewBox="0 0 28 29" fill="none" xmlns="http://www.w3.org/2000/svg">
<path d="M3.68872 0.166656C2.0196 0.166656 0.666504 1.5505 0.666504 3.25757C0.666504 4.96463 2.0196 6.34848 3.68872 6.34848C5.35785 6.34848 6.71095 4.96463 6.71095 3.25757C6.71095 1.5505 5.35785 0.166656 3.68872 0.166656Z" fill="white"/>
<path d="M0.844282 8.89393C0.746098 8.89393 0.666504 8.97534 0.666504 9.07575V27.9848C0.666504 28.0853 0.746098 28.1667 0.844282 28.1667H6.53317C6.63135 28.1667 6.71095 28.0853 6.71095 27.9848V9.07575C6.71095 8.97534 6.63135 8.89393 6.53317 8.89393H0.844282Z" fill="white"/>
<path d="M10.0887 8.89393C9.99054 8.89393 9.91094 8.97534 9.91094 9.07575V27.9848C9.91094 28.0853 9.99054 28.1667 10.0887 28.1667H15.7776C15.8758 28.1667 15.9554 28.0853 15.9554 27.9848V17.803C15.9554 17.0797 16.2363 16.386 16.7364 15.8746C17.2365 15.3631 17.9148 15.0758 18.6221 15.0758C19.3293 15.0758 20.0076 15.3631 20.5077 15.8746C21.0078 16.386 21.2887 17.0797 21.2887 17.803V27.9848C21.2887 28.0853 21.3683 28.1667 21.4665 28.1667H27.1554C27.2536 28.1667 27.3332 28.0853 27.3332 27.9848V15.447C27.3332 11.9172 24.3314 9.15574 20.8974 9.47502C19.8383 9.57349 18.7912 9.84275 17.8135 10.2713L15.9554 11.0857V9.07575C15.9554 8.97534 15.8758 8.89393 15.7776 8.89393H10.0887Z" fill="white"/>
</svg>
