<svg width="14" height="13" viewBox="0 0 14 13" fill="none" xmlns="http://www.w3.org/2000/svg">
<path d="M11.3842 3.97958L5.20202 0.888471C1.04924 -1.19153 -0.655202 0.512916 1.4248 4.66569L2.05313 5.92236C2.23369 6.29069 2.23369 6.7168 2.05313 7.08514L1.4248 8.33458C-0.655202 12.4874 1.04202 14.1918 5.20202 12.1118L11.3842 9.02069C14.1576 7.63403 14.1576 5.36625 11.3842 3.97958ZM9.05146 7.0418H5.15146C4.85535 7.0418 4.6098 6.79625 4.6098 6.50014C4.6098 6.20403 4.85535 5.95847 5.15146 5.95847H9.05146C9.34758 5.95847 9.59313 6.20403 9.59313 6.50014C9.59313 6.79625 9.34758 7.0418 9.05146 7.0418Z" fill="white"/>
</svg>
