<svg width="34" height="28" viewBox="0 0 34 28" fill="none" xmlns="http://www.w3.org/2000/svg">
<path d="M33.3496 3.87872C33.4462 3.7441 33.3035 3.57029 33.1491 3.63017C32.0512 4.05572 30.9038 4.34283 29.7334 4.48432C31.0366 3.70579 32.0422 2.52065 32.5998 1.11755C32.6566 0.974613 32.5005 0.846969 32.3659 0.921325C31.1547 1.59022 29.8484 2.07188 28.4915 2.34928C28.4347 2.36089 28.3762 2.34155 28.3363 2.29948C27.318 1.22502 25.9776 0.509625 24.5164 0.262409C23.0245 0.0100011 21.491 0.259921 20.1564 0.972973C18.8218 1.68602 17.7616 2.82188 17.1421 4.20238C16.5531 5.51498 16.3942 6.97817 16.6847 8.38338C16.7072 8.49241 16.6219 8.59535 16.5108 8.58845C13.8707 8.42447 11.2912 7.72226 8.93114 6.52409C6.57712 5.32898 4.49257 3.66637 2.80445 1.63882C2.72953 1.54883 2.58753 1.56048 2.53294 1.66407C2.00766 2.66085 1.73263 3.77183 1.73338 4.90099C1.73125 6.02496 2.00708 7.13202 2.53631 8.1236C3.06554 9.11518 3.83174 9.96051 4.76671 10.5843C3.77517 10.5573 2.80296 10.3122 1.91879 9.86778C1.80485 9.8105 1.66817 9.89206 1.6741 10.0195C1.74304 11.5015 2.28713 12.9894 3.2289 14.1309C4.23111 15.3457 5.62214 16.1771 7.16671 16.4843C6.57214 16.6653 5.95484 16.7607 5.33338 16.7677C4.99514 16.7637 4.65757 16.7388 4.32261 16.693C4.19841 16.676 4.09699 16.794 4.14047 16.9115C4.60117 18.1573 5.41504 19.2444 6.48517 20.0379C7.62926 20.8863 9.00934 21.3569 10.4334 21.3843C8.02872 23.2764 5.05985 24.3091 2.00005 24.3177C1.68564 24.3187 1.37137 24.3085 1.05785 24.2871C0.881169 24.2751 0.799911 24.5105 0.952203 24.6009C3.93348 26.3701 7.34103 27.3052 10.8167 27.301C13.3829 27.3276 15.9286 26.8427 18.3052 25.8745C20.6819 24.9062 22.8417 23.4741 24.6587 21.6618C26.4757 19.8495 27.9133 17.6933 28.8876 15.3192C29.862 12.945 30.3534 10.4005 30.3334 7.83432V7.03461C30.3334 6.98199 30.3583 6.93251 30.4003 6.9008C31.5307 6.04723 32.5249 5.02817 33.3496 3.87872Z" fill="white"/>
</svg>
